<?xml version="1.0" encoding="utf-8"?>
<!-- Generator: Adobe Illustrator 28.0.0, SVG Export Plug-In . SVG Version: 6.00 Build 0)  -->
<svg version="1.1" id="Layer_1" xmlns="http://www.w3.org/2000/svg" xmlns:xlink="http://www.w3.org/1999/xlink" x="0px" y="0px"
	 viewBox="0 0 16 16" style="enable-background:new 0 0 16 16;" xml:space="preserve">
<style type="text/css">
	.st0{fill:#E0C0A4;}
</style>
<path class="st0" d="M14,5.7V5.3c0-0.3-0.2-0.5-0.5-0.5c-0.1,0-0.1,0-0.2,0L8.2,7.2c-0.1,0.1-0.3,0.1-0.4,0L2.7,4.9
	C2.4,4.8,2.1,4.9,2,5.2c0,0,0,0.1,0,0.2v0.4C2,5.8,2,6,2.1,6L7.6,12c0.2,0.2,0.5,0.2,0.7,0l0,0L13.8,6C13.9,6,14,5.8,14,5.7z"/>
</svg>
