<svg width="32" height="32" viewBox="0 0 32 32" fill="none" xmlns="http://www.w3.org/2000/svg">
<path fill-rule="evenodd" clip-rule="evenodd" d="M16.0019 5.04883C13.0278 5.04883 12.6548 5.06143 11.4868 5.11473C10.3212 5.16789 9.52507 5.35303 8.8285 5.62377C8.10836 5.90359 7.49765 6.27804 6.88881 6.88685C6.28 7.49569 5.90554 8.10641 5.62572 8.82654C5.35498 9.52311 5.16985 10.3192 5.11669 11.4848C5.06339 12.6529 5.05078 13.0258 5.05078 16C5.05078 18.9741 5.06339 19.347 5.11669 20.5151C5.16985 21.6807 5.35498 22.4768 5.62572 23.1733C5.90554 23.8935 6.28 24.5042 6.88881 25.113C7.49765 25.7218 8.10836 26.0963 8.8285 26.3762C9.52507 26.6468 10.3212 26.832 11.4868 26.8851C12.6548 26.9384 13.0278 26.9511 16.0019 26.9511C18.976 26.9511 19.349 26.9384 20.517 26.8851C21.6826 26.832 22.4787 26.6468 23.1753 26.3762C23.8954 26.0963 24.5061 25.7218 25.115 25.113C25.7238 24.5042 26.0982 23.8935 26.3781 23.1733C26.6488 22.4768 26.8339 21.6807 26.8871 20.5151C26.9404 19.347 26.953 18.9741 26.953 16C26.953 13.0258 26.9404 12.6529 26.8871 11.4848C26.8339 10.3192 26.6488 9.52311 26.3781 8.82654C26.0982 8.10641 25.7238 7.49569 25.115 6.88685C24.5061 6.27804 23.8954 5.90359 23.1753 5.62377C22.4787 5.35303 21.6826 5.16789 20.517 5.11473C19.349 5.06143 18.976 5.04883 16.0019 5.04883ZM16.0019 7.02199C18.926 7.02199 19.2723 7.03317 20.4271 7.08586C21.4948 7.13454 22.0747 7.31294 22.4606 7.46292C22.9717 7.66158 23.3365 7.89889 23.7197 8.28212C24.103 8.66531 24.3402 9.03012 24.5389 9.54129C24.6889 9.92718 24.8673 10.507 24.916 11.5748C24.9686 12.7295 24.9798 13.0759 24.9798 16C24.9798 18.924 24.9686 19.2704 24.916 20.4251C24.8673 21.4929 24.6889 22.0727 24.5389 22.4586C24.3402 22.9698 24.103 23.3346 23.7197 23.7178C23.3365 24.101 22.9717 24.3383 22.4606 24.537C22.0747 24.6869 21.4948 24.8653 20.4271 24.914C19.2725 24.9667 18.9262 24.9779 16.0019 24.9779C13.0776 24.9779 12.7313 24.9667 11.5767 24.914C10.509 24.8653 9.92913 24.6869 9.54324 24.537C9.03207 24.3383 8.66726 24.101 8.28407 23.7178C7.90088 23.3346 7.66353 22.9698 7.46487 22.4586C7.3149 22.0727 7.1365 21.4929 7.08781 20.4251C7.03512 19.2704 7.02395 18.924 7.02395 16C7.02395 13.0759 7.03512 12.7295 7.08781 11.5748C7.1365 10.507 7.3149 9.92718 7.46487 9.54129C7.66353 9.03012 7.90083 8.66531 8.28407 8.28212C8.66726 7.89889 9.03207 7.66158 9.54324 7.46292C9.92913 7.31294 10.509 7.13454 11.5767 7.08586C12.7315 7.03317 13.0778 7.02199 16.0019 7.02199ZM16.0019 10.3764C12.8961 10.3764 10.3784 12.8941 10.3784 16C10.3784 19.1058 12.8961 21.6235 16.0019 21.6235C19.1077 21.6235 21.6254 19.1058 21.6254 16C21.6254 12.8941 19.1077 10.3764 16.0019 10.3764ZM16.0019 19.6503C13.9858 19.6503 12.3515 18.016 12.3515 16C12.3515 13.9839 13.9858 12.3496 16.0019 12.3496C18.018 12.3496 19.6523 13.9839 19.6523 16C19.6523 18.016 18.018 19.6503 16.0019 19.6503ZM23.1618 10.1542C23.1618 10.88 22.5734 11.4683 21.8476 11.4683C21.1219 11.4683 20.5335 10.88 20.5335 10.1542C20.5335 9.42844 21.1219 8.84006 21.8476 8.84006C22.5734 8.84006 23.1618 9.42844 23.1618 10.1542Z" fill="#E0C0A4"/>
</svg>
