<svg width="202" height="324" viewBox="0 0 202 324" fill="none" xmlns="http://www.w3.org/2000/svg">
<path d="M133.845 139.913C98.2635 90.9773 47.0892 21.0696 54.4254 0.468872H0V0.646932C45.0465 39.7039 93.5624 92.7657 130.08 142.994C171.797 200.36 188.59 267.078 171.704 288.089C158.162 304.943 132.668 301.784 108.991 286.456C75.8416 264.988 50.9873 228.865 0 261.156V323.035C24.3944 270.895 90.1555 281.338 122.728 302.419C139.435 313.234 154.568 323.035 168.18 323.035C174.37 323.035 180.233 321.015 185.799 316.145C195.085 308.009 199.77 296.233 199.708 281.114C199.646 263.796 193.362 242.065 181.028 216.525C169.833 193.331 153.952 167.551 133.838 139.897L133.845 139.913ZM59.7268 304.269C49.3111 307.196 41.4135 313.637 36.1978 323.469H54.3162C51.5798 318.034 52.7648 311.454 60.9508 309.154C78.8198 304.146 102.629 311.903 120.701 323.469H129.441C110.519 309.394 82.0084 298.03 59.7346 304.269H59.7268ZM45.8963 160.335C30.5612 154.537 12.1153 145.216 0 132.063V204.564C8.63821 161.543 69.4955 174.634 78.7184 174.634C83.3104 174.634 87.2007 173.504 90.2256 170.756C93.4844 167.791 94.7396 163.138 93.9678 156.929C92.1045 141.879 78.0012 117.16 56.2341 90.807C37.6012 68.2399 17.2296 49.2649 0 38.202V76.8332C12.5207 63.5484 35.1999 72.9933 52.6557 94.1359C73.5105 119.389 87.5281 143.698 89.2511 157.587C89.7968 162.008 89.0796 165.143 87.1227 166.924C80.1295 173.295 63.5002 167.001 45.8963 160.335ZM156.299 39.4329C143.31 27.5417 142.951 7.21965 146.21 0.468872H129.971C131.624 5.65582 138.609 29.8797 153.157 43.2341C161.764 51.1307 173.388 55.0867 187.904 55.0867C192.333 55.0867 197.034 54.7151 202 53.9719V31.7222C193.214 50.821 166.566 48.8391 156.291 39.4252L156.299 39.4329ZM124.334 71.0269C108.383 42.0264 111.86 5.96549 122.681 0.468872H102.271C100.142 14.133 103.697 43.4741 120.171 73.4888C135.67 101.731 184.505 154.142 202 176.577V114.334C170.846 115.031 139.046 97.7745 124.334 71.0269ZM73.2922 242.072C72.8712 243.056 74.7189 246.539 83.1077 251.092C98.014 259.182 107.525 266.707 115.174 272.745C125.083 280.572 131.039 285.294 140.932 284.993C148.58 284.753 154.677 281.408 155.425 277.026C155.901 274.263 155.036 264.221 124.139 250.805C91.8394 236.777 74.68 238.875 73.2922 242.072Z" fill="#E0C0A4"/>
</svg>
