<svg width="36" height="36" viewBox="0 0 36 36" fill="none" xmlns="http://www.w3.org/2000/svg">
<path d="M28 3.33333H26.3333V1.66667C26.3333 1.22464 26.1577 0.800716 25.8452 0.488155C25.5326 0.175595 25.1087 0 24.6667 0C24.2246 0 23.8007 0.175595 23.4882 0.488155C23.1756 0.800716 23 1.22464 23 1.66667V3.33333H13V1.66667C13 1.22464 12.8244 0.800716 12.5118 0.488155C12.1993 0.175595 11.7754 0 11.3333 0C10.8913 0 10.4674 0.175595 10.1548 0.488155C9.84226 0.800716 9.66667 1.22464 9.66667 1.66667V3.33333H8C6.67392 3.33333 5.40215 3.86012 4.46447 4.7978C3.52678 5.73548 3 7.00725 3 8.33333V28.3333C3 29.6594 3.52678 30.9312 4.46447 31.8689C5.40215 32.8065 6.67392 33.3333 8 33.3333H28C29.3261 33.3333 30.5979 32.8065 31.5355 31.8689C32.4732 30.9312 33 29.6594 33 28.3333V8.33333C33 7.00725 32.4732 5.73548 31.5355 4.7978C30.5979 3.86012 29.3261 3.33333 28 3.33333ZM11.3333 25C11.0037 25 10.6815 24.9023 10.4074 24.7191C10.1333 24.536 9.91968 24.2757 9.79353 23.9711C9.66739 23.6666 9.63438 23.3315 9.69869 23.0082C9.763 22.6849 9.92173 22.3879 10.1548 22.1548C10.3879 21.9217 10.6849 21.763 11.0082 21.6987C11.3315 21.6344 11.6666 21.6674 11.9711 21.7935C12.2757 21.9197 12.536 22.1333 12.7191 22.4074C12.9023 22.6815 13 23.0037 13 23.3333C13 23.7754 12.8244 24.1993 12.5118 24.5118C12.1993 24.8244 11.7754 25 11.3333 25ZM24.6667 25H18C17.558 25 17.134 24.8244 16.8215 24.5118C16.5089 24.1993 16.3333 23.7754 16.3333 23.3333C16.3333 22.8913 16.5089 22.4674 16.8215 22.1548C17.134 21.8423 17.558 21.6667 18 21.6667H24.6667C25.1087 21.6667 25.5326 21.8423 25.8452 22.1548C26.1577 22.4674 26.3333 22.8913 26.3333 23.3333C26.3333 23.7754 26.1577 24.1993 25.8452 24.5118C25.5326 24.8244 25.1087 25 24.6667 25ZM29.6667 15H6.33333V8.33333C6.33333 7.89131 6.50893 7.46738 6.82149 7.15482C7.13405 6.84226 7.55797 6.66667 8 6.66667H9.66667V8.33333C9.66667 8.77536 9.84226 9.19928 10.1548 9.51184C10.4674 9.8244 10.8913 10 11.3333 10C11.7754 10 12.1993 9.8244 12.5118 9.51184C12.8244 9.19928 13 8.77536 13 8.33333V6.66667H23V8.33333C23 8.77536 23.1756 9.19928 23.4882 9.51184C23.8007 9.8244 24.2246 10 24.6667 10C25.1087 10 25.5326 9.8244 25.8452 9.51184C26.1577 9.19928 26.3333 8.77536 26.3333 8.33333V6.66667H28C28.442 6.66667 28.866 6.84226 29.1785 7.15482C29.4911 7.46738 29.6667 7.89131 29.6667 8.33333V15Z" fill="#00533E"/>
</svg>
