<?xml version="1.0" encoding="utf-8"?>
<!-- Generator: Adobe Illustrator 27.9.0, SVG Export Plug-In . SVG Version: 6.00 Build 0)  -->
<svg version="1.1" id="Layer_1" xmlns="http://www.w3.org/2000/svg" xmlns:xlink="http://www.w3.org/1999/xlink" x="0px" y="0px"
	 viewBox="0 0 180 120" style="enable-background:new 0 0 180 120;" xml:space="preserve">
<style type="text/css">
	.st0{fill:#00533E;}
	.st1{opacity:0.1;fill-rule:evenodd;clip-rule:evenodd;fill:#E0C0A4;enable-background:new    ;}
</style>
<rect class="st0" width="180" height="120"/>
<path class="st1" d="M92,120v-9h88v-2h-43.1V62h7.8L180,97.2v-2.8L147.6,62H180v-2H92v-9h88v-2h-43.2V26.6h38.6
	c2.9,5.9,4.5,12.5,4.5,19.5V32.6C175.5,18,163.9,6.4,149.2,2H180V0H0v1v1v103.9V120h2v-9h88v9H92z M134.9,62h-7.1L92,97.8v8v3.1
	h42.9V62z M125.1,62H92v33L125.1,62z M90,60v-9H2v9h40.4c1.2-0.1,2.4-0.1,3.6-0.1s2.4,0,3.6,0.1H90z M59.9,62H90v30.4
	C85.6,78,74.3,66.6,59.9,62z M46.8,62h2.7c15,1.2,27.9,9.9,34.9,22.4H46.8V62z M42.5,62h2.4v22.4H7.6C14.6,71.9,27.5,63.2,42.5,62z
	 M32.1,62H2v30.4C6.4,78,17.7,66.6,32.1,62z M134.8,26.6V49H92v-2.9c0-7,1.6-13.6,4.5-19.5H134.8z M90,46.1V49H47V2h7.5L90,37.4
	V46.1z M45,2v47H2V38L38.1,2H45z M2,109h42.8V86.4H6.5C3.6,92.2,2,98.9,2,105.9V109z M46.8,109H90v-3.1c0-7-1.6-13.6-4.5-19.5H46.8
	V109z M92,2h30.8C108.1,6.4,96.5,18,92,32.6V2z M57.3,2H90v32.6L57.3,2z M2,2h33.3L2,35.2V2z M97.6,24.6
	c7.4-13.1,21.2-22.1,37.2-22.5v22.5H97.6z M136.8,2.1c16.1,0.3,30.2,9.3,37.6,22.5h-37.6V2.1z"/>
</svg>
