<svg width="32" height="32" viewBox="0 0 32 32" fill="none" xmlns="http://www.w3.org/2000/svg">
<path d="M22.3211 5.58496C23.3852 5.58496 24.295 5.96275 25.0506 6.71833C25.8061 7.47392 26.1839 8.38374 26.1839 9.44782V22.324C26.1839 23.3881 25.8061 24.2979 25.0506 25.0535C24.295 25.8091 23.3852 26.1869 22.3211 26.1869H19.7995V18.2063H22.4686L22.871 15.0946H19.7995V13.1095C19.7995 12.6087 19.9046 12.2332 20.1147 11.9828C20.3248 11.7324 20.7339 11.6073 21.342 11.6073L22.9783 11.5938V8.81742C22.415 8.73694 21.6191 8.69671 20.5908 8.69671C19.3748 8.69671 18.4023 9.05438 17.6736 9.76972C16.9448 10.4851 16.5804 11.4955 16.5804 12.801V15.0946H13.8979V18.2063H16.5804V26.1869H9.44489C8.38081 26.1869 7.47099 25.8091 6.7154 25.0535C5.95982 24.2979 5.58203 23.3881 5.58203 22.324V9.44782C5.58203 8.38374 5.95982 7.47392 6.7154 6.71833C7.47099 5.96275 8.38081 5.58496 9.44489 5.58496H22.3211Z" fill="#E0C0A4"/>
</svg>
