<svg width="534" height="90" viewBox="0 0 534 90" fill="none" xmlns="http://www.w3.org/2000/svg">
<g clip-path="url(#clip0_258_19104)">
<path d="M30.9559 19.8357H0V88.2546H30.9559C53.029 88.2546 67.6208 75.0924 67.6208 54.0452C67.6208 32.9979 53.029 19.8357 30.9559 19.8357ZM29.2041 72.4641H20.2388V35.6263H29.2041C40.5395 35.6263 46.269 41.7659 46.269 54.0452C46.269 66.3244 40.5601 72.4641 29.2041 72.4641ZM93.6303 61.5811H119.393V46.2218H93.6303V35.8727H123.7V19.8152H73.9274V88.2341H125.287V72.1766H93.6303V61.5606V61.5811ZM91.4251 14.4764H108.037L125.555 0H104.883L91.4251 14.4764ZM166.507 35.0924C174.586 35.0924 179.965 39.2197 181.098 46.5914H202.017C200.265 29.2197 186.271 18.0904 165.868 18.0904C143.362 18.0904 127.966 33.1006 127.966 54.3121C127.966 75.5236 142.208 89.5688 162.446 89.5688C169.928 89.5688 176.956 87.3717 181.263 83.0801C182.665 81.6838 183.468 81.232 184.252 81.232C185.303 81.232 185.653 81.848 186.271 83.5113C186.704 84.9897 186.89 86.4066 187.158 88.2546H200.781V56.5914H182.933C182.665 59.4867 182.046 62.1971 180.995 64.5791C178.357 70.1848 173.431 72.9979 166.321 72.9979C156.47 72.9979 149.359 65.8111 149.359 54.0452C149.359 42.2793 156.573 35.0924 166.507 35.0924ZM230.294 19.8357H210.076V88.2546H257.396V72.1971H230.315V19.8357H230.294ZM283.014 19.8357L260.59 88.2546H281.344L285.569 74.9281H307.457L311.6 88.2546H333.941L310.384 19.8357H283.034H283.014ZM288.723 60.9856L296.369 34.6612L304.366 60.9856H288.723ZM370.956 35.1129C379.035 35.1129 385.28 39.8563 386.248 47.9261H407.002C404.9 29.5072 390.556 17.9261 370.255 18.0904C348.182 18.0904 332.436 33.347 332.436 54.0657C332.436 74.7844 348.182 90.0411 370.255 90.0411C390.576 90.0411 404.9 78.6448 407.002 60.2053H386.248C385.28 68.2752 379.035 73.0185 370.956 73.0185C360.321 73.0185 353.808 65.1335 353.808 54.0657C353.808 42.9979 360.321 35.1129 370.956 35.1129ZM433.919 61.6016H459.681V46.2423H433.919V35.8932H463.989V19.8357H414.216V88.2546H465.575V72.1971H433.919V61.5811V61.6016ZM531.012 79.9384L529.157 67.7413C528.106 60.0205 525.55 56.7762 519.656 55.729C526.951 53.3676 531.444 47.4949 531.444 39.3224C531.444 26.6119 522.747 19.8563 507.887 19.8563H473.16V88.2752H492.945V63.4497H503.065C508.073 63.4497 509.474 65.1951 510.093 70.3901L511.412 82.3203C511.762 85.3799 512.916 87.6797 513.699 88.2752H534.021C533.052 87.3101 531.733 85.2156 531.032 79.9384H531.012ZM503.662 50.0205H493.028V34.9281H503.662C509.021 34.9281 511.659 37.3922 511.659 42.3819C511.659 47.3717 509.021 50.0205 503.662 50.0205Z" fill="#E0C0A4"/>
</g>
<defs>
<clipPath id="clip0_258_19104">
<rect width="534" height="90" fill="white"/>
</clipPath>
</defs>
</svg>
